<mxfile host="app.diagrams.net" modified="2023-10-04T15:20:45.405Z" agent="Mozilla/5.0 (Windows NT 10.0; Win64; x64) AppleWebKit/537.36 (KHTML, like Gecko) Chrome/117.0.0.0 Safari/537.36 Edg/117.0.2045.47" etag="hDRPkETyX4ISdFaHMt9Y" version="22.0.2" type="device">
  <diagram name="Page-1" id="7DWau2qbc8qM9he5w43z">
    <mxGraphModel dx="494" dy="228" grid="1" gridSize="10" guides="1" tooltips="1" connect="1" arrows="1" fold="1" page="1" pageScale="1" pageWidth="827" pageHeight="1169" background="#FFFFFF" math="0" shadow="0">
      <root>
        <mxCell id="0" />
        <mxCell id="1" parent="0" />
        <mxCell id="itQx-ovCOgyy2h5ANXq_-1" value="" style="rounded=1;whiteSpace=wrap;html=1;fillColor=#FFFFFF;strokeColor=#000000;fontColor=none;labelBackgroundColor=#FFFFFF;strokeWidth=4;" parent="1" vertex="1">
          <mxGeometry x="100" y="80" width="130" height="80" as="geometry" />
        </mxCell>
        <mxCell id="itQx-ovCOgyy2h5ANXq_-2" value="&lt;font face=&quot;Times New Roman&quot; style=&quot;font-size: 20px;&quot;&gt;Read Image&lt;/font&gt;" style="text;html=1;strokeColor=none;fillColor=none;align=center;verticalAlign=middle;whiteSpace=wrap;rounded=0;fontColor=#000000;" parent="1" vertex="1">
          <mxGeometry x="115" y="90" width="100" height="60" as="geometry" />
        </mxCell>
        <mxCell id="itQx-ovCOgyy2h5ANXq_-3" value="" style="rounded=1;whiteSpace=wrap;html=1;fillColor=#FFFFFF;strokeColor=#000000;fontColor=none;labelBackgroundColor=#FFFFFF;strokeWidth=4;" parent="1" vertex="1">
          <mxGeometry x="310" y="80" width="140" height="80" as="geometry" />
        </mxCell>
        <mxCell id="itQx-ovCOgyy2h5ANXq_-4" value="&lt;font face=&quot;Times New Roman&quot; style=&quot;font-size: 20px;&quot;&gt;Image Resizing&lt;/font&gt;" style="text;html=1;strokeColor=none;fillColor=none;align=center;verticalAlign=middle;whiteSpace=wrap;rounded=0;fontColor=#000000;" parent="1" vertex="1">
          <mxGeometry x="330" y="90" width="100" height="60" as="geometry" />
        </mxCell>
        <mxCell id="itQx-ovCOgyy2h5ANXq_-8" value="" style="rounded=1;whiteSpace=wrap;html=1;fillColor=#FFFFFF;strokeColor=#000000;fontColor=none;labelBackgroundColor=#FFFFFF;strokeWidth=4;" parent="1" vertex="1">
          <mxGeometry x="510" y="80" width="290" height="80" as="geometry" />
        </mxCell>
        <mxCell id="itQx-ovCOgyy2h5ANXq_-9" value="&lt;font face=&quot;Times New Roman&quot; style=&quot;font-size: 20px;&quot;&gt;RGB to Gray-Scale Image Conversion&lt;/font&gt;" style="text;html=1;strokeColor=none;fillColor=none;align=center;verticalAlign=middle;whiteSpace=wrap;rounded=0;fontColor=#000000;" parent="1" vertex="1">
          <mxGeometry x="530" y="90" width="250" height="60" as="geometry" />
        </mxCell>
        <mxCell id="itQx-ovCOgyy2h5ANXq_-11" value="" style="rounded=1;whiteSpace=wrap;html=1;fillColor=#FFFFFF;strokeColor=#000000;fontColor=none;labelBackgroundColor=#FFFFFF;strokeWidth=4;" parent="1" vertex="1">
          <mxGeometry x="650" y="220" width="150" height="80" as="geometry" />
        </mxCell>
        <mxCell id="itQx-ovCOgyy2h5ANXq_-12" value="&lt;font face=&quot;Times New Roman&quot; style=&quot;font-size: 20px;&quot;&gt;Contrast Enhancement&lt;/font&gt;" style="text;html=1;strokeColor=none;fillColor=none;align=center;verticalAlign=middle;whiteSpace=wrap;rounded=0;fontColor=#000000;" parent="1" vertex="1">
          <mxGeometry x="675" y="230" width="100" height="60" as="geometry" />
        </mxCell>
        <mxCell id="itQx-ovCOgyy2h5ANXq_-13" value="" style="rounded=1;whiteSpace=wrap;html=1;fillColor=#FFFFFF;strokeColor=#000000;fontColor=none;labelBackgroundColor=#FFFFFF;strokeWidth=4;" parent="1" vertex="1">
          <mxGeometry x="380" y="220" width="210" height="80" as="geometry" />
        </mxCell>
        <mxCell id="itQx-ovCOgyy2h5ANXq_-14" value="&lt;font face=&quot;Times New Roman&quot; style=&quot;font-size: 20px;&quot;&gt;Noise Reduction &amp;amp; Tilt Correction&lt;/font&gt;" style="text;html=1;strokeColor=none;fillColor=none;align=center;verticalAlign=middle;whiteSpace=wrap;rounded=0;fontColor=#000000;" parent="1" vertex="1">
          <mxGeometry x="400" y="230" width="170" height="60" as="geometry" />
        </mxCell>
        <mxCell id="itQx-ovCOgyy2h5ANXq_-15" value="" style="rounded=1;html=1;fontColor=none;labelBackgroundColor=#FFFFFF;noLabel=1;fillColor=#FFFFFF;strokeColor=#000000;strokeWidth=4;" parent="1" vertex="1">
          <mxGeometry x="90" y="220" width="240" height="80" as="geometry" />
        </mxCell>
        <mxCell id="itQx-ovCOgyy2h5ANXq_-16" value="&lt;font face=&quot;Times New Roman&quot; style=&quot;font-size: 20px;&quot;&gt;Edge Dection Using Sobel Operator&lt;/font&gt;" style="text;html=1;strokeColor=none;fillColor=none;align=center;verticalAlign=middle;whiteSpace=wrap;rounded=0;fontColor=#000000;" parent="1" vertex="1">
          <mxGeometry x="120" y="230" width="180" height="60" as="geometry" />
        </mxCell>
        <mxCell id="itQx-ovCOgyy2h5ANXq_-17" value="" style="rounded=1;whiteSpace=wrap;html=1;fillColor=#FFFFFF;strokeColor=#000000;fontColor=none;labelBackgroundColor=#FFFFFF;strokeWidth=4;" parent="1" vertex="1">
          <mxGeometry x="90" y="360" width="170" height="80" as="geometry" />
        </mxCell>
        <mxCell id="itQx-ovCOgyy2h5ANXq_-18" value="&lt;font face=&quot;Times New Roman&quot; style=&quot;font-size: 20px;&quot;&gt;Morphological Operation&lt;/font&gt;" style="text;html=1;strokeColor=none;fillColor=none;align=center;verticalAlign=middle;whiteSpace=wrap;rounded=0;fontColor=#000000;" parent="1" vertex="1">
          <mxGeometry x="110" y="370" width="130" height="60" as="geometry" />
        </mxCell>
        <mxCell id="itQx-ovCOgyy2h5ANXq_-19" value="" style="rounded=1;whiteSpace=wrap;html=1;fillColor=#FFFFFF;strokeColor=#000000;fontColor=none;labelBackgroundColor=#FFFFFF;strokeWidth=4;" parent="1" vertex="1">
          <mxGeometry x="310" y="360" width="260" height="80" as="geometry" />
        </mxCell>
        <mxCell id="itQx-ovCOgyy2h5ANXq_-20" value="&lt;font face=&quot;Times New Roman&quot; style=&quot;font-size: 20px;&quot;&gt;Bounding Box Technique for Localization&lt;/font&gt;" style="text;html=1;strokeColor=none;fillColor=none;align=center;verticalAlign=middle;whiteSpace=wrap;rounded=0;fontColor=#000000;" parent="1" vertex="1">
          <mxGeometry x="320" y="370" width="240" height="60" as="geometry" />
        </mxCell>
        <mxCell id="itQx-ovCOgyy2h5ANXq_-22" value="" style="rounded=1;whiteSpace=wrap;html=1;fillColor=#FFFFFF;strokeColor=#000000;fontColor=none;labelBackgroundColor=#FFFFFF;strokeWidth=4;" parent="1" vertex="1">
          <mxGeometry x="630" y="360" width="170" height="80" as="geometry" />
        </mxCell>
        <mxCell id="itQx-ovCOgyy2h5ANXq_-23" value="&lt;font face=&quot;Times New Roman&quot; style=&quot;font-size: 20px;&quot;&gt;Cropping Plate Region&lt;/font&gt;" style="text;html=1;strokeColor=none;fillColor=none;align=center;verticalAlign=middle;whiteSpace=wrap;rounded=0;fontColor=#000000;" parent="1" vertex="1">
          <mxGeometry x="650" y="370" width="130" height="60" as="geometry" />
        </mxCell>
        <mxCell id="itQx-ovCOgyy2h5ANXq_-24" value="" style="rounded=1;whiteSpace=wrap;html=1;fillColor=#FFFFFF;strokeColor=#000000;fontColor=none;labelBackgroundColor=#FFFFFF;strokeWidth=4;" parent="1" vertex="1">
          <mxGeometry x="630" y="490" width="170" height="80" as="geometry" />
        </mxCell>
        <mxCell id="itQx-ovCOgyy2h5ANXq_-25" value="&lt;font face=&quot;Times New Roman&quot; style=&quot;font-size: 20px;&quot;&gt;Binary Image Conversion&lt;/font&gt;" style="text;html=1;strokeColor=none;fillColor=none;align=center;verticalAlign=middle;whiteSpace=wrap;rounded=0;fontColor=#000000;" parent="1" vertex="1">
          <mxGeometry x="650" y="500" width="130" height="60" as="geometry" />
        </mxCell>
        <mxCell id="itQx-ovCOgyy2h5ANXq_-26" value="" style="rounded=1;whiteSpace=wrap;html=1;fillColor=#FFFFFF;strokeColor=#000000;fontColor=none;labelBackgroundColor=#FFFFFF;strokeWidth=4;" parent="1" vertex="1">
          <mxGeometry x="350" y="490" width="220" height="80" as="geometry" />
        </mxCell>
        <mxCell id="itQx-ovCOgyy2h5ANXq_-27" value="&lt;font face=&quot;Times New Roman&quot; style=&quot;font-size: 20px;&quot;&gt;Dust and Unnecessary Object Removal&lt;/font&gt;" style="text;html=1;strokeColor=none;fillColor=none;align=center;verticalAlign=middle;whiteSpace=wrap;rounded=0;fontColor=#000000;" parent="1" vertex="1">
          <mxGeometry x="360" y="500" width="200" height="60" as="geometry" />
        </mxCell>
        <mxCell id="itQx-ovCOgyy2h5ANXq_-28" value="" style="rounded=1;whiteSpace=wrap;html=1;fillColor=#FFFFFF;strokeColor=#000000;fontColor=none;labelBackgroundColor=#FFFFFF;strokeWidth=4;" parent="1" vertex="1">
          <mxGeometry x="90" y="490" width="180" height="80" as="geometry" />
        </mxCell>
        <mxCell id="itQx-ovCOgyy2h5ANXq_-29" value="&lt;font face=&quot;Times New Roman&quot; style=&quot;font-size: 20px;&quot;&gt;Split The Image Row Wise&lt;/font&gt;" style="text;html=1;strokeColor=none;fillColor=none;align=center;verticalAlign=middle;whiteSpace=wrap;rounded=0;fontColor=#000000;" parent="1" vertex="1">
          <mxGeometry x="105" y="500" width="140" height="60" as="geometry" />
        </mxCell>
        <mxCell id="itQx-ovCOgyy2h5ANXq_-31" value="" style="rounded=1;whiteSpace=wrap;html=1;fillColor=#FFFFFF;strokeColor=#000000;fontColor=none;labelBackgroundColor=#FFFFFF;strokeWidth=4;" parent="1" vertex="1">
          <mxGeometry x="90" y="620" width="300" height="80" as="geometry" />
        </mxCell>
        <mxCell id="itQx-ovCOgyy2h5ANXq_-32" value="&lt;font face=&quot;Times New Roman&quot; style=&quot;font-size: 20px;&quot;&gt;Character Segmentation Using Connected Component Analysis&lt;/font&gt;" style="text;html=1;strokeColor=none;fillColor=none;align=center;verticalAlign=middle;whiteSpace=wrap;rounded=0;fontColor=#000000;" parent="1" vertex="1">
          <mxGeometry x="90" y="630" width="300" height="60" as="geometry" />
        </mxCell>
        <mxCell id="itQx-ovCOgyy2h5ANXq_-33" value="" style="shape=flexArrow;endArrow=classic;html=1;rounded=0;exitX=1;exitY=0.5;exitDx=0;exitDy=0;entryX=0;entryY=0.5;entryDx=0;entryDy=0;fillColor=#000000;" parent="1" source="itQx-ovCOgyy2h5ANXq_-1" target="itQx-ovCOgyy2h5ANXq_-3" edge="1">
          <mxGeometry width="50" height="50" relative="1" as="geometry">
            <mxPoint x="245" y="140" as="sourcePoint" />
            <mxPoint x="295" y="90" as="targetPoint" />
          </mxGeometry>
        </mxCell>
        <mxCell id="itQx-ovCOgyy2h5ANXq_-34" value="" style="shape=flexArrow;endArrow=classic;html=1;rounded=0;exitX=1;exitY=0.5;exitDx=0;exitDy=0;entryX=0;entryY=0.5;entryDx=0;entryDy=0;fillColor=#000000;" parent="1" source="itQx-ovCOgyy2h5ANXq_-3" target="itQx-ovCOgyy2h5ANXq_-8" edge="1">
          <mxGeometry width="50" height="50" relative="1" as="geometry">
            <mxPoint x="240" y="130" as="sourcePoint" />
            <mxPoint x="320" y="130" as="targetPoint" />
          </mxGeometry>
        </mxCell>
        <mxCell id="itQx-ovCOgyy2h5ANXq_-35" value="" style="shape=flexArrow;endArrow=classic;html=1;rounded=0;fillColor=#000000;endWidth=24;endSize=9.62;entryX=0.5;entryY=0;entryDx=0;entryDy=0;exitX=0.74;exitY=1.002;exitDx=0;exitDy=0;exitPerimeter=0;" parent="1" source="itQx-ovCOgyy2h5ANXq_-8" target="itQx-ovCOgyy2h5ANXq_-11" edge="1">
          <mxGeometry width="50" height="50" relative="1" as="geometry">
            <mxPoint x="730" y="160" as="sourcePoint" />
            <mxPoint x="720" y="220" as="targetPoint" />
          </mxGeometry>
        </mxCell>
        <mxCell id="itQx-ovCOgyy2h5ANXq_-37" value="" style="shape=flexArrow;endArrow=classic;html=1;rounded=0;exitX=0;exitY=0.5;exitDx=0;exitDy=0;entryX=1;entryY=0.5;entryDx=0;entryDy=0;fillColor=#000000;" parent="1" source="itQx-ovCOgyy2h5ANXq_-11" target="itQx-ovCOgyy2h5ANXq_-13" edge="1">
          <mxGeometry width="50" height="50" relative="1" as="geometry">
            <mxPoint x="260" y="150" as="sourcePoint" />
            <mxPoint x="340" y="150" as="targetPoint" />
          </mxGeometry>
        </mxCell>
        <mxCell id="itQx-ovCOgyy2h5ANXq_-38" value="" style="shape=flexArrow;endArrow=classic;html=1;rounded=0;entryX=1;entryY=0.5;entryDx=0;entryDy=0;exitX=0;exitY=0.5;exitDx=0;exitDy=0;strokeColor=#F0F0F0;fillColor=#000000;" parent="1" source="itQx-ovCOgyy2h5ANXq_-13" target="itQx-ovCOgyy2h5ANXq_-15" edge="1">
          <mxGeometry width="50" height="50" relative="1" as="geometry">
            <mxPoint x="370" y="260" as="sourcePoint" />
            <mxPoint x="350" y="160" as="targetPoint" />
          </mxGeometry>
        </mxCell>
        <mxCell id="itQx-ovCOgyy2h5ANXq_-39" value="" style="shape=flexArrow;endArrow=classic;html=1;rounded=0;exitX=1;exitY=0.5;exitDx=0;exitDy=0;entryX=0;entryY=0.5;entryDx=0;entryDy=0;fillColor=#000000;" parent="1" source="itQx-ovCOgyy2h5ANXq_-17" target="itQx-ovCOgyy2h5ANXq_-19" edge="1">
          <mxGeometry width="50" height="50" relative="1" as="geometry">
            <mxPoint x="280" y="170" as="sourcePoint" />
            <mxPoint x="360" y="170" as="targetPoint" />
          </mxGeometry>
        </mxCell>
        <mxCell id="itQx-ovCOgyy2h5ANXq_-40" value="" style="shape=flexArrow;endArrow=classic;html=1;rounded=0;entryX=0.25;entryY=0;entryDx=0;entryDy=0;fillColor=#000000;" parent="1" target="itQx-ovCOgyy2h5ANXq_-17" edge="1">
          <mxGeometry width="50" height="50" relative="1" as="geometry">
            <mxPoint x="133" y="300" as="sourcePoint" />
            <mxPoint x="370" y="180" as="targetPoint" />
          </mxGeometry>
        </mxCell>
        <mxCell id="itQx-ovCOgyy2h5ANXq_-41" value="" style="shape=flexArrow;endArrow=classic;html=1;rounded=0;exitX=1;exitY=0.5;exitDx=0;exitDy=0;fillColor=#000000;" parent="1" source="itQx-ovCOgyy2h5ANXq_-19" target="itQx-ovCOgyy2h5ANXq_-22" edge="1">
          <mxGeometry width="50" height="50" relative="1" as="geometry">
            <mxPoint x="300" y="190" as="sourcePoint" />
            <mxPoint x="380" y="190" as="targetPoint" />
          </mxGeometry>
        </mxCell>
        <mxCell id="itQx-ovCOgyy2h5ANXq_-42" value="" style="shape=flexArrow;endArrow=classic;html=1;rounded=0;exitX=0;exitY=0.5;exitDx=0;exitDy=0;entryX=1;entryY=0.5;entryDx=0;entryDy=0;fillColor=#000000;" parent="1" source="itQx-ovCOgyy2h5ANXq_-24" target="itQx-ovCOgyy2h5ANXq_-26" edge="1">
          <mxGeometry width="50" height="50" relative="1" as="geometry">
            <mxPoint x="500" y="680" as="sourcePoint" />
            <mxPoint x="580" y="680" as="targetPoint" />
          </mxGeometry>
        </mxCell>
        <mxCell id="itQx-ovCOgyy2h5ANXq_-43" value="" style="shape=flexArrow;endArrow=classic;html=1;rounded=0;exitX=0.5;exitY=1;exitDx=0;exitDy=0;entryX=0.5;entryY=0;entryDx=0;entryDy=0;fillColor=#000000;" parent="1" source="itQx-ovCOgyy2h5ANXq_-22" target="itQx-ovCOgyy2h5ANXq_-24" edge="1">
          <mxGeometry width="50" height="50" relative="1" as="geometry">
            <mxPoint x="320" y="210" as="sourcePoint" />
            <mxPoint x="400" y="210" as="targetPoint" />
          </mxGeometry>
        </mxCell>
        <mxCell id="itQx-ovCOgyy2h5ANXq_-44" value="" style="shape=flexArrow;endArrow=classic;html=1;rounded=0;exitX=0;exitY=0.5;exitDx=0;exitDy=0;entryX=1;entryY=0.5;entryDx=0;entryDy=0;fillColor=#000000;" parent="1" source="itQx-ovCOgyy2h5ANXq_-26" target="itQx-ovCOgyy2h5ANXq_-28" edge="1">
          <mxGeometry width="50" height="50" relative="1" as="geometry">
            <mxPoint x="330" y="220" as="sourcePoint" />
            <mxPoint x="410" y="220" as="targetPoint" />
          </mxGeometry>
        </mxCell>
        <mxCell id="itQx-ovCOgyy2h5ANXq_-45" value="" style="shape=flexArrow;endArrow=classic;html=1;rounded=0;exitX=0.25;exitY=1;exitDx=0;exitDy=0;fillColor=#000000;" parent="1" source="itQx-ovCOgyy2h5ANXq_-28" edge="1">
          <mxGeometry width="50" height="50" relative="1" as="geometry">
            <mxPoint x="340" y="230" as="sourcePoint" />
            <mxPoint x="135" y="620" as="targetPoint" />
          </mxGeometry>
        </mxCell>
        <mxCell id="RFCY7WkCXRYhe1slrhA2-1" value="" style="rounded=1;whiteSpace=wrap;html=1;fillColor=#FFFFFF;strokeColor=#000000;fontColor=none;labelBackgroundColor=#FFFFFF;strokeWidth=4;" vertex="1" parent="1">
          <mxGeometry x="430" y="620" width="170" height="80" as="geometry" />
        </mxCell>
        <mxCell id="RFCY7WkCXRYhe1slrhA2-2" value="&lt;font face=&quot;Times New Roman&quot; style=&quot;font-size: 20px;&quot;&gt;Character Recognition&lt;/font&gt;" style="text;html=1;strokeColor=none;fillColor=none;align=center;verticalAlign=middle;whiteSpace=wrap;rounded=0;fontColor=#000000;" vertex="1" parent="1">
          <mxGeometry x="450" y="630" width="130" height="60" as="geometry" />
        </mxCell>
        <mxCell id="RFCY7WkCXRYhe1slrhA2-3" value="" style="rounded=1;whiteSpace=wrap;html=1;fillColor=#FFFFFF;strokeColor=#000000;fontColor=none;labelBackgroundColor=#FFFFFF;strokeWidth=4;" vertex="1" parent="1">
          <mxGeometry x="630" y="620" width="170" height="80" as="geometry" />
        </mxCell>
        <mxCell id="RFCY7WkCXRYhe1slrhA2-4" value="&lt;font face=&quot;Times New Roman&quot; style=&quot;font-size: 20px;&quot;&gt;Save the output in text file&lt;/font&gt;" style="text;html=1;strokeColor=none;fillColor=none;align=center;verticalAlign=middle;whiteSpace=wrap;rounded=0;fontColor=#000000;" vertex="1" parent="1">
          <mxGeometry x="650" y="630" width="130" height="60" as="geometry" />
        </mxCell>
        <mxCell id="RFCY7WkCXRYhe1slrhA2-5" value="" style="rounded=1;whiteSpace=wrap;html=1;fillColor=#FFFFFF;strokeColor=#000000;fontColor=none;labelBackgroundColor=#FFFFFF;strokeWidth=4;" vertex="1" parent="1">
          <mxGeometry x="630" y="770" width="170" height="80" as="geometry" />
        </mxCell>
        <mxCell id="RFCY7WkCXRYhe1slrhA2-6" value="&lt;font face=&quot;Times New Roman&quot; style=&quot;font-size: 20px;&quot;&gt;Matching with cloud database&lt;/font&gt;" style="text;html=1;strokeColor=none;fillColor=none;align=center;verticalAlign=middle;whiteSpace=wrap;rounded=0;fontColor=#000000;" vertex="1" parent="1">
          <mxGeometry x="650" y="780" width="130" height="60" as="geometry" />
        </mxCell>
        <mxCell id="RFCY7WkCXRYhe1slrhA2-7" value="" style="rounded=1;whiteSpace=wrap;html=1;fillColor=#FFFFFF;strokeColor=#000000;fontColor=none;labelBackgroundColor=#FFFFFF;strokeWidth=4;" vertex="1" parent="1">
          <mxGeometry x="340" y="770" width="250" height="80" as="geometry" />
        </mxCell>
        <mxCell id="RFCY7WkCXRYhe1slrhA2-8" value="&lt;font face=&quot;Times New Roman&quot; style=&quot;font-size: 20px;&quot;&gt;Authenticating Registration and tax-token status&lt;/font&gt;" style="text;html=1;strokeColor=none;fillColor=none;align=center;verticalAlign=middle;whiteSpace=wrap;rounded=0;fontColor=#000000;" vertex="1" parent="1">
          <mxGeometry x="350" y="780" width="230" height="60" as="geometry" />
        </mxCell>
        <mxCell id="RFCY7WkCXRYhe1slrhA2-9" value="" style="rounded=1;whiteSpace=wrap;html=1;fillColor=#FFFFFF;strokeColor=#000000;fontColor=none;labelBackgroundColor=#FFFFFF;strokeWidth=4;" vertex="1" parent="1">
          <mxGeometry x="90" y="770" width="220" height="80" as="geometry" />
        </mxCell>
        <mxCell id="RFCY7WkCXRYhe1slrhA2-10" value="&lt;font face=&quot;Times New Roman&quot; style=&quot;font-size: 20px;&quot;&gt;Displaying the finding of vehicle owner&lt;/font&gt;" style="text;html=1;strokeColor=none;fillColor=none;align=center;verticalAlign=middle;whiteSpace=wrap;rounded=0;fontColor=#000000;" vertex="1" parent="1">
          <mxGeometry x="95" y="780" width="205" height="60" as="geometry" />
        </mxCell>
        <mxCell id="RFCY7WkCXRYhe1slrhA2-11" value="" style="shape=flexArrow;endArrow=classic;html=1;rounded=0;exitX=1;exitY=0.5;exitDx=0;exitDy=0;fillColor=#000000;entryX=0;entryY=0.5;entryDx=0;entryDy=0;" edge="1" parent="1" source="itQx-ovCOgyy2h5ANXq_-32" target="RFCY7WkCXRYhe1slrhA2-1">
          <mxGeometry width="50" height="50" relative="1" as="geometry">
            <mxPoint x="145" y="580" as="sourcePoint" />
            <mxPoint x="145" y="630" as="targetPoint" />
          </mxGeometry>
        </mxCell>
        <mxCell id="RFCY7WkCXRYhe1slrhA2-12" value="" style="shape=flexArrow;endArrow=classic;html=1;rounded=0;exitX=1;exitY=0.5;exitDx=0;exitDy=0;fillColor=#000000;" edge="1" parent="1" source="RFCY7WkCXRYhe1slrhA2-1" target="RFCY7WkCXRYhe1slrhA2-3">
          <mxGeometry width="50" height="50" relative="1" as="geometry">
            <mxPoint x="155" y="590" as="sourcePoint" />
            <mxPoint x="155" y="640" as="targetPoint" />
          </mxGeometry>
        </mxCell>
        <mxCell id="RFCY7WkCXRYhe1slrhA2-13" value="" style="shape=flexArrow;endArrow=classic;html=1;rounded=0;exitX=0.5;exitY=1;exitDx=0;exitDy=0;fillColor=#000000;entryX=0.5;entryY=0;entryDx=0;entryDy=0;" edge="1" parent="1" source="RFCY7WkCXRYhe1slrhA2-3" target="RFCY7WkCXRYhe1slrhA2-5">
          <mxGeometry width="50" height="50" relative="1" as="geometry">
            <mxPoint x="165" y="600" as="sourcePoint" />
            <mxPoint x="165" y="650" as="targetPoint" />
          </mxGeometry>
        </mxCell>
        <mxCell id="RFCY7WkCXRYhe1slrhA2-14" value="" style="shape=flexArrow;endArrow=classic;html=1;rounded=0;exitX=0;exitY=0.5;exitDx=0;exitDy=0;fillColor=#000000;entryX=1;entryY=0.5;entryDx=0;entryDy=0;" edge="1" parent="1" source="RFCY7WkCXRYhe1slrhA2-7" target="RFCY7WkCXRYhe1slrhA2-9">
          <mxGeometry width="50" height="50" relative="1" as="geometry">
            <mxPoint x="175" y="610" as="sourcePoint" />
            <mxPoint x="310" y="817" as="targetPoint" />
          </mxGeometry>
        </mxCell>
        <mxCell id="RFCY7WkCXRYhe1slrhA2-15" value="" style="shape=flexArrow;endArrow=classic;html=1;rounded=0;exitX=-0.011;exitY=0.4;exitDx=0;exitDy=0;fillColor=#000000;exitPerimeter=0;entryX=1.006;entryY=0.41;entryDx=0;entryDy=0;entryPerimeter=0;" edge="1" parent="1" source="RFCY7WkCXRYhe1slrhA2-5" target="RFCY7WkCXRYhe1slrhA2-7">
          <mxGeometry width="50" height="50" relative="1" as="geometry">
            <mxPoint x="185" y="620" as="sourcePoint" />
            <mxPoint x="185" y="670" as="targetPoint" />
          </mxGeometry>
        </mxCell>
      </root>
    </mxGraphModel>
  </diagram>
</mxfile>
